<svg width="150" height="100" viewBox="0 0 150 100" fill="none" xmlns="http://www.w3.org/2000/svg">
<path d="M68.1818 100H37.5C27.1591 100 18.325 96.7187 10.9977 90.1562C3.66591 83.5937 0 75.5729 0 66.0938C0 57.9688 2.67045 50.7292 8.01136 44.375C13.3523 38.0208 20.3409 33.9583 28.9773 32.1875C31.8182 22.6042 37.5 14.8438 46.0227 8.90625C54.5455 2.96875 64.2045 0 75 0C88.2955 0 99.5727 4.24375 108.832 12.7313C118.095 21.2229 122.727 31.5625 122.727 43.75C130.568 44.5833 137.075 47.6813 142.248 53.0438C147.416 58.4104 150 64.6875 150 71.875C150 79.6875 147.018 86.3292 141.055 91.8C135.086 97.2667 127.841 100 119.318 100H81.8182V55.3125L92.7273 65L102.273 56.25L75 31.25L47.7273 56.25L57.2727 65L68.1818 55.3125V100Z" fill="#F8F8F8"/>
</svg>
